Coordinates
version=1
nRows=14
nColumns=36
inDegrees=yes

Units are S.I. units (second, meters, Newtons, ...)
If the header above contains a line with 'inDegrees', this indicates whether rotational values are in degrees (yes) or radians (no).

endheader
time	pelvis_tilt	pelvis_list	pelvis_rotation	pelvis_tx	pelvis_ty	pelvis_tz	hip_flexion_r	hip_adduction_r	hip_rotation_r	knee_angle_r	knee_angle_r_beta	ankle_angle_r	subtalar_angle_r	mtp_angle_r	hip_flexion_l	hip_adduction_l	hip_rotation_l	knee_angle_l	knee_angle_l_beta	ankle_angle_l	subtalar_angle_l	mtp_angle_l	lumbar_extension	lumbar_bending	lumbar_rotation	arm_flex_r	arm_add_r	arm_rot_r	elbow_flex_r	pro_sup_r	arm_flex_l	arm_add_l	arm_rot_l	elbow_flex_l	pro_sup_l
      1.42083330	    -15.16003092	      0.33125164	     -2.02248713	     -0.44945059	      1.39424950	     -0.11516106	     10.97852271	     -6.53466265	    -10.59553763	     29.52446270	      0.51529908	    -29.94454698	    -14.68369991	     -7.49999987	     10.25569193	     -3.05089191	    -16.30032550	     26.96831442	      0.47068588	    -28.29203906	    -19.04599502	     -7.49999987	     -4.90851308	      1.61708939	      1.64469453	     40.13293009	    -29.40797383	     26.02660185	    104.25625851	     96.10986096	     33.52165552	    -27.14936502	      4.51237296	    104.07439255	     70.79752127
      1.42500000	    -15.16281159	      0.25479434	     -2.07600628	     -0.44542478	      1.39911865	     -0.11560486	     11.76770347	     -6.68924210	    -11.02843977	     30.72143319	      0.53619016	    -29.55506351	    -15.14219414	     -7.49999987	     10.90752915	     -3.15363417	    -16.09552054	     27.87582972	      0.48652501	    -27.58934693	    -18.67185246	     -7.49999987	     -5.11300072	      1.78061503	      1.78955503	     39.83311162	    -29.78600476	     26.57061229	    104.21681925	     96.11978595	     33.22401671	    -26.96324208	      4.41186349	    103.87637694	     70.67183041
      1.42916670	    -15.05748052	      0.08795688	     -2.18304750	     -0.44078069	      1.40026254	     -0.11511653	     12.46547239	     -6.64594512	    -11.36507749	     31.86905060	      0.55621986	    -28.79738846	    -15.42139507	     -7.49999987	     11.42583896	     -3.43996166	    -15.95500516	     28.66940570	      0.50037552	    -26.73157679	    -18.27523357	     -7.49999987	     -5.42614543	      1.98905021	      1.94343476	     39.52820087	    -30.07425458	     27.04901144	    104.07107867	     96.11949398	     33.02121952	    -26.79532406	      4.31504942	    103.64981210	     70.55837233
      1.43333330	    -15.00421136	      0.26721971	     -2.25603581	     -0.43509699	      1.39943730	     -0.11673950	     12.88257440	     -7.14071790	    -11.54862476	     32.72988917	      0.57124433	    -28.48111461	    -15.21550777	     -7.49999987	     12.01185832	     -3.29326592	    -15.91277332	     29.51661096	      0.51516205	    -26.03810004	    -17.83916524	     -7.49999987	     -5.36281655	      1.87723408	      2.06054881	     39.09292459	    -30.35171270	     27.66395106	    103.68231179	     96.10894324	     32.65109608	    -26.60377269	      4.23837154	    103.13688886	     70.39119074
      1.43750000	    -15.00974563	      0.28071573	     -2.45739164	     -0.42960022	      1.40130856	     -0.11764768	     13.69638082	     -7.26741777	    -11.68982156	     33.75394035	      0.58911739	    -27.93118203	    -14.99447348	     -7.49999987	     12.63502373	     -3.35369665	    -16.32741301	     30.20017079	      0.52709241	    -26.25328043	    -18.56979938	     -7.49999987	     -5.26950097	      1.93456365	      2.23999620	     38.61572177	    -30.63580359	     28.32720767	    103.04331735	     93.79681373	     32.20689602	    -26.41253959	      4.22214980	    102.55231487	     69.44994452
      1.44166670	    -14.84955053	      0.42692337	     -2.58221120	     -0.42460026	      1.40294790	     -0.11796850	     14.06201078	     -7.60393251	    -11.67133842	     34.26910535	      0.59810872	    -26.98486391	    -14.51178239	     -7.49999987	     13.15978341	     -3.21852199	    -16.60009631	     30.74076077	      0.53652749	    -26.29129744	    -18.40221870	     -7.49999987	     -5.56725361	      1.78539737	      1.96169871	     38.62277930	    -30.59552172	     29.02023801	    102.47468111	     95.14421771	     31.42683272	    -26.52738100	      3.45259101	    102.63938225	     68.23202306
      1.44583330	    -14.89099084	      0.49090195	     -2.81319506	     -0.42104673	      1.40096731	     -0.11837159	     15.14594399	     -7.80500724	    -11.08623449	     35.55781225	      0.62060090	    -25.44099837	    -13.97135120	     -7.49999987	     14.10435542	     -3.20176488	    -16.61662178	     31.56488606	      0.55091119	    -26.04754007	    -18.46581249	     -7.49999987	     -5.59789753	      1.70493039	      2.13051457	     38.50690017	    -30.83452131	     29.63907051	    102.05167099	     91.33126965	     31.23477029	    -26.35893873	      3.49186025	    102.10664745	     67.19718964
      1.45000000	    -14.81741192	      0.28814463	     -3.17155447	     -0.41661464	      1.40158234	     -0.11932607	     16.02950253	     -7.91352628	    -11.23684275	     36.73856264	      0.64120888	    -25.64182635	    -14.32046016	     -7.49999987	     14.58188447	     -3.39745675	    -16.49987073	     31.73046934	      0.55380116	    -25.06194154	    -16.64957667	     -7.49999987	     -6.09171022	      2.07307187	      2.04201714	     38.97385121	    -30.99049175	     30.47350282	    101.81599063	     95.07597138	     30.19163590	    -26.34188172	      2.34235934	    102.59440714	     67.23668313
      1.45416670	    -14.84996168	      0.12479296	     -3.23643323	     -0.41339097	      1.40354047	     -0.11874508	     16.94364015	     -7.87843979	    -11.14048154	     37.46202266	      0.65383564	    -25.16408576	    -14.21875700	     -7.49999987	     15.33889901	     -3.78445240	    -16.29344486	     32.29940261	      0.56373092	    -24.78078754	    -15.87309544	     -7.49999987	     -6.42067985	      2.24676819	      2.22337848	     38.93156738	    -31.30428224	     30.85244178	    101.66446717	     95.24908979	     29.94454514	    -26.11227654	      2.24441376	    102.39655824	     66.91935057
      1.45833330	    -14.84230404	     -0.09625535	     -3.54268101	     -0.41018907	      1.40189533	     -0.11854119	     17.88131916	     -7.73163710	    -10.95519498	     38.51976210	      0.67229668	    -24.49018418	    -14.44832634	     -7.49999987	     15.97283155	     -4.24328408	    -16.13093278	     32.70231371	      0.57076305	    -24.22614448	    -14.84868337	     -7.49999987	     -6.72732578	      2.40747943	      2.38612912	     38.99003537	    -31.52980141	     31.79464718	    101.41881850	     91.81917680	     29.70440230	    -26.02594353	      2.12899639	    102.12800681	     66.08172816
      1.46250000	    -14.97891893	     -0.23268321	     -3.83600927	     -0.40637403	      1.40013793	     -0.11806280	     19.04221749	     -7.65886079	    -10.72929555	     39.53593123	      0.69003217	    -23.50585570	    -14.22493477	     -7.49999987	     16.73729267	     -4.59287742	    -16.07425909	     33.17310005	      0.57897982	    -23.81594854	    -14.53405935	     -7.49999987	     -6.74444349	      2.46201186	      1.95981545	     39.32820792	    -31.14402903	     33.22888351	    100.53381094	     94.50209468	     28.77183327	    -26.30666378	      1.18411632	    102.21217569	     65.90598221
      1.46666670	    -14.87854325	     -0.21965760	     -3.97472789	     -0.40242666	      1.40372156	     -0.11861803	     19.41744387	     -7.76708822	    -10.57998015	     39.70672212	      0.69301304	    -22.06911857	    -13.16087476	     -7.49999987	     17.32537719	     -4.75069260	    -15.97674498	     33.43844651	      0.58361099	    -23.76936690	    -13.72434627	     -7.49999987	     -6.97536152	      2.16932598	      2.04227840	     38.99204182	    -31.13443026	     34.10886433	     99.99071320	     92.39361270	     28.64063233	    -26.24567433	      1.36617152	    101.64844593	     65.42228931
      1.47083330	    -14.79144556	     -0.24984163	     -4.19372715	     -0.39810479	      1.40329019	     -0.11835545	     19.97818223	     -7.78900137	    -10.50301965	     40.39767077	      0.70507237	    -20.91491383	    -13.36072759	     -7.49999987	     17.77440746	     -4.98726385	    -16.06779819	     33.50137356	      0.58470927	    -23.22739228	    -12.90329771	     -7.49999987	     -7.31743503	      1.90597744	      2.11506293	     38.84303451	    -31.22689470	     35.08658919	     99.49283116	     89.28807218	     28.45214271	    -26.20724792	      1.39557706	    101.39097078	     64.77696710
      1.47500000	    -14.71865984	     -0.27335887	     -4.09481240	     -0.39367047	      1.40315845	     -0.11883160	     20.34907065	     -8.01920936	    -11.04201163	     40.58946323	      0.70841977	    -20.26345814	    -13.50979480	     -7.49999987	     17.94406966	     -5.08502916	    -16.26730664	     32.84814350	      0.57330826	    -22.76745059	    -11.74740042	     -7.49999987	     -7.75381535	      1.73630220	      1.75883819	     38.73308275	    -31.30032743	     35.87726285	     99.21553605	     88.82166019	     27.90951944	    -26.24994897	      0.84155606	    101.41968254	     64.34988436
